<?xml version="1.0" standalone="no"?>
<!DOCTYPE svg PUBLIC "-//W3C//DTD SVG 20010904//EN"
 "http://www.w3.org/TR/2001/REC-SVG-20010904/DTD/svg10.dtd">
<svg version="1.0" xmlns="http://www.w3.org/2000/svg"
 width="300.000000pt" height="287.000000pt" viewBox="0 0 300.000000 287.000000"
 preserveAspectRatio="xMidYMid meet">
<metadata>
Created by potrace 1.10, written by Peter Selinger 2001-2011
</metadata>
<g transform="translate(0.000000,287.000000) scale(0.100000,-0.100000)"
fill="#000000" stroke="none">
<path d="M1470 2263 c-48 -48 -61 -69 -75 -117 -22 -77 -15 -142 25 -212 16
-30 26 -54 21 -54 -15 0 -91 101 -91 121 0 38 -18 17 -34 -39 -36 -128 -15
-222 69 -305 l42 -42 2 -82 c1 -45 -2 -84 -7 -87 -19 -11 -73 77 -87 142 -7
35 -2 38 39 22 37 -14 32 2 -13 38 -21 17 -47 49 -59 72 -11 23 -22 38 -25 33
-8 -15 11 -157 28 -203 8 -24 29 -65 45 -90 30 -46 97 -117 103 -109 3 2 7
171 10 374 3 204 4 366 2 360 -2 -5 -6 -28 -10 -50 -6 -37 -8 -38 -21 -20 -34
46 9 195 63 216 14 5 27 8 28 7 8 -11 24 -127 19 -144 -3 -12 -1 -25 5 -28 10
-7 31 52 31 90 0 11 -7 42 -16 68 -9 26 -14 58 -11 71 7 40 -19 30 -83 -32z
m-74 -380 l34 -28 0 -93 c0 -107 -7 -112 -55 -41 -25 37 -30 56 -33 117 -5 82
1 87 54 45z"/>
<path d="M1590 2126 c0 -13 -5 -37 -10 -52 -7 -19 -7 -30 1 -40 24 -29 -25
-201 -54 -191 -7 2 -15 37 -19 86 -4 46 -9 86 -12 89 -3 3 -6 -139 -6 -316 0
-176 -3 -327 -6 -336 -12 -30 22 -17 65 27 48 46 101 131 101 161 0 14 -10 9
-44 -24 -25 -24 -47 -54 -51 -67 -3 -13 -12 -23 -20 -23 -13 0 -15 27 -15 174
0 96 3 176 8 178 17 7 66 84 83 129 22 56 24 111 8 175 -13 50 -29 67 -29 30z"/>
<path d="M1642 1911 c-6 -17 -32 -57 -58 -87 -47 -55 -49 -69 -4 -34 14 11 30
20 37 20 16 0 5 -35 -21 -63 -31 -34 -56 -74 -56 -92 0 -8 29 17 65 56 l65 71
-1 61 c0 34 -4 71 -8 81 -7 18 -9 16 -19 -13z"/>
<path d="M972 1818 c-15 -15 -15 -41 0 -56 19 -19 38 -14 48 11 8 20 9 20 9 2
1 -13 17 -28 48 -45 45 -24 96 -81 114 -129 5 -13 12 -21 15 -18 10 10 -24 98
-53 140 -48 70 -152 124 -181 95z"/>
<path d="M1915 1819 c-51 -14 -112 -75 -145 -143 -18 -35 -30 -72 -28 -83 3
-14 8 -10 20 18 23 52 71 103 118 124 28 12 40 24 41 39 0 20 1 20 9 -1 15
-37 60 -22 60 19 0 14 -30 41 -42 37 -2 0 -17 -5 -33 -10z"/>
<path d="M702 1747 c-18 -44 -14 -141 8 -208 36 -105 87 -172 170 -220 82 -47
78 -57 -12 -33 -13 4 -33 -28 -91 -141 l-75 -147 9 -65 c10 -72 7 -82 -15 -63
-13 10 -18 6 -33 -24 -15 -32 -15 -38 -2 -51 16 -16 675 -199 687 -191 4 3 13
-8 20 -22 27 -63 126 -83 181 -37 16 14 33 35 36 46 4 10 10 17 15 14 8 -5
663 170 683 182 11 6 9 39 -5 68 -13 28 -19 30 -37 13 -10 -11 -11 1 -6 63 l7
76 -72 141 -72 141 -31 -5 c-18 -3 -37 -7 -44 -9 -7 -2 -14 -1 -17 3 -3 5 18
19 45 32 130 61 221 232 205 384 -10 97 -33 98 -27 1 3 -45 -34 -149 -75 -211
-37 -55 -115 -123 -189 -162 -52 -28 -183 -87 -215 -97 -14 -4 -40 -19 -58
-33 -18 -14 -36 -22 -40 -18 -4 4 0 13 8 19 8 7 20 24 27 38 18 42 75 101 110
115 18 8 56 14 85 14 38 0 49 3 38 10 -8 5 -39 10 -69 10 l-54 0 56 44 c31 24
100 63 154 86 92 40 138 68 129 77 -2 3 -19 -3 -37 -13 -18 -9 -64 -27 -101
-40 -94 -32 -171 -81 -243 -153 -54 -55 -155 -193 -155 -213 0 -4 -4 -8 -10
-8 -15 0 26 99 66 156 75 110 176 186 314 236 70 25 88 39 24 19 -16 -5 -57
-15 -91 -22 -38 -8 -58 -16 -50 -21 9 -6 9 -8 0 -8 -6 0 -25 -12 -42 -26 -17
-14 -31 -20 -31 -14 0 22 41 80 52 74 5 -4 20 -2 31 4 53 24 80 32 129 37 102
12 176 42 208 82 23 30 19 44 -6 19 -31 -32 -90 -53 -187 -70 -93 -15 -149
-34 -162 -55 -3 -6 -11 -8 -18 -6 -18 7 -122 -78 -162 -133 -38 -51 -75 -139
-75 -176 0 -13 -15 -55 -34 -92 -18 -38 -44 -97 -56 -132 -13 -34 -24 -61 -26
-60 -1 2 -17 39 -34 83 -17 44 -42 100 -55 125 -13 25 -26 64 -29 87 -13 92
-73 186 -163 258 -32 25 -61 45 -65 45 -4 0 1 -15 12 -32 11 -18 20 -37 20
-43 0 -14 -19 9 -38 46 -24 47 -66 68 -185 89 -57 10 -117 25 -133 33 -37 19
-81 66 -86 92 -4 18 -6 17 -16 -8z m73 -104 c22 -14 42 -29 45 -32 8 -10 52
-28 151 -61 154 -51 266 -139 346 -272 18 -29 35 -69 39 -88 5 -30 -2 -22 -53
55 -63 94 -148 183 -221 229 -24 15 -96 47 -160 71 -94 35 -112 39 -89 21 15
-12 62 -37 105 -55 95 -40 176 -92 199 -128 10 -15 35 -43 57 -62 21 -19 52
-58 70 -86 53 -83 53 -82 26 -62 -35 25 -127 67 -148 67 -10 0 -23 5 -29 11
-6 6 -31 12 -55 13 -95 5 -97 6 -104 28 -7 24 -64 83 -104 109 -45 29 -107
148 -123 237 -8 39 -3 40 48 5z m985 -160 c0 -10 -16 -31 -35 -46 -37 -29 -49
-23 -15 8 11 10 22 26 25 36 8 24 25 25 25 2z m228 -207 c-10 -9 -68 -14 -68
-7 0 5 15 16 33 24 29 15 32 15 35 1 2 -9 2 -17 0 -18z m-987 -52 c173 -30
323 -100 387 -182 42 -53 60 -113 72 -231 10 -99 20 -143 20 -90 1 81 21 214
38 253 58 130 267 238 502 260 l65 6 58 -116 c32 -64 57 -117 55 -119 -2 -2
-76 -13 -165 -24 -282 -37 -453 -109 -520 -219 -26 -42 -33 -91 -9 -59 16 21
23 22 28 3 2 -12 17 -8 73 15 97 42 250 82 294 76 45 -5 217 18 273 37 31 11
46 12 56 4 18 -16 -1 -32 -53 -46 -22 -5 -76 -20 -120 -32 -44 -12 -129 -35
-190 -51 -60 -16 -150 -40 -200 -53 -49 -14 -93 -22 -97 -20 -4 3 -8 -3 -8
-14 0 -20 -34 -55 -64 -66 -31 -11 -85 13 -101 44 -10 20 -27 33 -53 40 -20 5
-163 44 -317 85 -344 93 -315 84 -315 100 0 22 30 26 78 9 26 -9 61 -17 77
-20 107 -13 133 -18 165 -35 45 -23 349 -121 363 -116 30 10 -141 76 -293 113
-84 20 -67 33 20 14 78 -16 207 -58 254 -82 26 -14 41 -17 44 -9 3 8 9 8 23 1
46 -25 5 63 -55 119 -94 86 -243 136 -495 166 -74 8 -137 17 -139 19 -2 2 23
56 55 120 66 132 51 124 194 100z m-96 -280 c225 -26 380 -77 468 -154 45 -39
50 -63 6 -25 -74 61 -245 121 -373 130 l-71 5 70 -14 c179 -35 334 -96 386
-152 l24 -26 -60 30 c-92 46 -179 69 -369 97 -209 31 -230 37 -234 58 -3 14 4
16 45 12 l48 -5 -45 13 c-35 10 -46 18 -48 36 -2 13 1 21 6 17 5 -3 71 -13
147 -22z m1295 7 c0 -15 -12 -24 -47 -35 l-48 -15 48 5 c43 5 48 3 45 -12 -4
-23 -31 -30 -233 -59 -192 -28 -262 -45 -344 -83 -31 -14 -60 -28 -66 -30 -5
-3 -1 5 10 17 24 28 160 94 235 115 30 9 91 22 135 31 l80 15 -68 -5 c-132 -9
-291 -63 -369 -125 -48 -39 -59 -38 -22 1 85 91 234 144 488 173 71 9 131 18
134 21 11 11 22 4 22 -14z"/>
<path d="M888 1160 c12 -5 53 -13 90 -16 132 -13 294 -75 361 -138 22 -20 29
-24 21 -10 -32 53 -174 125 -306 154 -93 20 -210 27 -166 10z"/>
<path d="M1901 1149 c-92 -21 -177 -50 -219 -76 -47 -29 -112 -84 -112 -95 0
-5 20 8 45 30 81 71 222 123 372 138 85 8 118 24 48 23 -27 0 -88 -9 -134 -20z"/>
<path d="M836 1092 c-3 -5 31 -12 82 -16 173 -13 328 -68 430 -153 l57 -47
-44 47 c-87 91 -253 155 -447 172 -42 4 -74 3 -78 -3z"/>
<path d="M1976 1089 c-163 -24 -309 -84 -378 -157 l-43 -46 44 38 c53 46 185
110 261 126 30 6 99 16 153 22 53 6 97 15 97 19 0 11 -53 10 -134 -2z"/>
<path d="M1805 765 c-154 -40 -325 -114 -227 -98 45 8 331 104 337 114 9 13
-10 11 -110 -16z"/>
<path d="M1380 639 c0 -5 5 -7 10 -4 6 3 10 2 10 -3 0 -4 9 -18 20 -30 30 -32
82 -30 109 5 27 34 22 38 -22 17 -34 -16 -37 -16 -72 5 -40 23 -55 26 -55 10z"/>
<path d="M1620 1697 c-45 -49 -50 -56 -27 -48 19 8 27 7 27 -1 0 -15 -41 -81
-59 -94 -8 -6 -15 -22 -16 -35 -2 -19 8 -12 56 38 48 52 59 71 69 117 6 31 10
62 8 69 -2 6 -28 -14 -58 -46z"/>
<path d="M1456 1270 c5 -41 4 -51 -10 -56 -19 -7 -21 -47 -3 -77 6 -12 17 -40
24 -62 l11 -40 1 35 c1 19 8 44 16 54 17 22 20 86 5 86 -5 0 -10 26 -11 58 0
41 -3 51 -9 37 -7 -17 -9 -17 -9 -2 -1 9 -6 17 -11 17 -7 0 -8 -18 -4 -50z
m29 -80 c10 -17 -6 -59 -21 -53 -19 7 -19 63 0 63 8 0 17 -4 21 -10z"/>
</g>
</svg>
